<svg width="24" height="24" viewBox="0 0 24 24" fill="none" xmlns="http://www.w3.org/2000/svg">
<path d="M11.9996 15.1999C11.8996 15.1999 11.7996 15.1791 11.6996 15.1374C11.5996 15.0957 11.4996 15.0332 11.3996 14.9499L6.47461 10.0249C6.30794 9.85824 6.22461 9.6499 6.22461 9.3999C6.22461 9.1499 6.30794 8.94157 6.47461 8.7749C6.64128 8.60824 6.84128 8.5249 7.07461 8.5249C7.30794 8.5249 7.50794 8.60824 7.67461 8.7749L11.9996 13.0999L16.3246 8.7749C16.4913 8.60824 16.6954 8.5249 16.9371 8.5249C17.1788 8.5249 17.3829 8.60824 17.5496 8.7749C17.7163 8.94157 17.7996 9.14574 17.7996 9.3874C17.7996 9.62907 17.7163 9.83324 17.5496 9.9999L12.5996 14.9499C12.4996 15.0332 12.4038 15.0957 12.3121 15.1374C12.2204 15.1791 12.1163 15.1999 11.9996 15.1999Z" fill="#888888"/>
</svg>
