<svg width="729" height="187" viewBox="0 0 729 187" fill="FFFFFF" xmlns="http://www.w3.org/2000/svg">
<rect x="58.0957" y="86.6137" width="40.5059" height="40.5059" transform="rotate(-45 58.0957 86.6137)" fill="#62E1FC"/>
<g filter="url(#filter0_d_0_1)">
<rect x="29.5791" y="115.13" width="40.5059" height="40.5059" transform="rotate(-45 29.5791 115.13)" fill="#2E00AB"/>
</g>
<path d="M1.0625 143.808L29.7045 115.166L58.3465 143.808L29.7045 143.61L1.0625 143.808Z" fill="#2E00AB"/>
<rect x="29.5791" y="58.0975" width="40.5059" height="40.5059" transform="rotate(-45 29.5791 58.0975)" fill="#FFFFFF"/>
<path d="M0 28.5181L29.2802 29.1925L58.1406 29.6224L29.9168 58.4349L0 28.5181Z" fill="#FFFFFF"/>
<rect x="283" y="60" width="55" height="42" fill="#62E1FC"/>
<path d="M208.928 50.504C219.643 50.504 228.171 54.0027 234.512 61C240.963 67.888 244.188 77.4 244.188 89.536V143H216.308V93.308C216.308 87.1853 214.723 82.4293 211.552 79.04C208.381 75.6507 204.117 73.956 198.76 73.956C193.403 73.956 189.139 75.6507 185.968 79.04C182.797 82.4293 181.212 87.1853 181.212 93.308V143H153.168V51.488H181.212V63.624C184.055 59.5787 187.881 56.408 192.692 54.112C197.503 51.7067 202.915 50.504 208.928 50.504ZM349.94 95.768C349.94 98.392 349.776 101.125 349.448 103.968H285.98C286.417 109.653 288.221 114.027 291.392 117.088C294.672 120.04 298.662 121.516 303.364 121.516C310.361 121.516 315.226 118.564 317.96 112.66H347.808C346.277 118.673 343.489 124.085 339.444 128.896C335.508 133.707 330.533 137.479 324.52 140.212C318.506 142.945 311.782 144.312 304.348 144.312C295.382 144.312 287.401 142.399 280.404 138.572C273.406 134.745 267.94 129.279 264.004 122.172C260.068 115.065 258.1 106.756 258.1 97.244C258.1 87.732 260.013 79.4227 263.84 72.316C267.776 65.2093 273.242 59.7427 280.24 55.916C287.237 52.0893 295.273 50.176 304.348 50.176C313.204 50.176 321.076 52.0347 327.964 55.752C334.852 59.4693 340.209 64.772 344.036 71.66C347.972 78.548 349.94 86.584 349.94 95.768ZM321.24 88.388C321.24 83.5773 319.6 79.7507 316.32 76.908C313.04 74.0653 308.94 72.644 304.02 72.644C299.318 72.644 295.328 74.0107 292.048 76.744C288.877 79.4773 286.909 83.3587 286.144 88.388H321.24ZM418.854 143L401.306 117.58L386.546 143H356.206L386.382 96.26L355.386 51.488H386.874L404.422 76.744L419.182 51.488H449.522L418.854 97.572L450.342 143H418.854ZM512.152 119.22V143H497.884C487.716 143 479.79 140.54 474.104 135.62C468.419 130.591 465.576 122.445 465.576 111.184V74.776H454.424V51.488H465.576V29.184H493.62V51.488H511.988V74.776H493.62V111.512C493.62 114.245 494.276 116.213 495.588 117.416C496.9 118.619 499.087 119.22 502.148 119.22H512.152Z" fill="#FFFFFF"/>
<path d="M541.877 41.976C536.957 41.976 532.912 40.5547 529.741 37.712C526.68 34.76 525.149 31.152 525.149 26.888C525.149 22.5147 526.68 18.9067 529.741 16.064C532.912 13.112 536.957 11.636 541.877 11.636C546.688 11.636 550.624 13.112 553.685 16.064C556.856 18.9067 558.441 22.5147 558.441 26.888C558.441 31.152 556.856 34.76 553.685 37.712C550.624 40.5547 546.688 41.976 541.877 41.976ZM555.817 51.488V143H527.773V51.488H555.817ZM622.061 74.776H606.973V143H578.929V74.776H568.761V51.488H578.929V48.864C578.929 37.6027 582.154 29.0747 588.605 23.28C595.055 17.376 604.513 14.424 616.977 14.424C619.054 14.424 620.585 14.4787 621.569 14.588V38.368C616.211 38.04 612.439 38.8053 610.253 40.664C608.066 42.5227 606.973 45.8573 606.973 50.668V51.488H622.061V74.776ZM728.718 51.488L671.318 186.46H641.142L662.134 139.884L624.906 51.488H656.23L677.386 108.724L698.378 51.488H728.718Z" fill="#FFFFFF"/>
<defs>
<filter id="filter0_d_0_1" x="25.5791" y="86.4879" width="65.2842" height="65.2839" filterUnits="userSpaceOnUse" color-interpolation-filters="sRGB">
<feFlood flood-opacity="0" result="BackgroundImageFix"/>
<feColorMatrix in="SourceAlpha" type="matrix" values="0 0 0 0 0 0 0 0 0 0 0 0 0 0 0 0 0 0 127 0" result="hardAlpha"/>
<feOffset dy="4"/>
<feGaussianBlur stdDeviation="2"/>
<feComposite in2="hardAlpha" operator="out"/>
<feColorMatrix type="matrix" values="0 0 0 0 0 0 0 0 0 0 0 0 0 0 0 0 0 0 0.25 0"/>
<feBlend mode="normal" in2="BackgroundImageFix" result="effect1_dropShadow_0_1"/>
<feBlend mode="normal" in="SourceGraphic" in2="effect1_dropShadow_0_1" result="shape"/>
</filter>
</defs>
</svg>
