<svg width="502" height="192" viewBox="0 0 502 192" fill="none" xmlns="http://www.w3.org/2000/svg">
<path d="M51.584 141L29.824 111.048V141H7.936V46.28H29.824V98.632L51.456 69.576H78.464L48.768 105.416L78.72 141H51.584ZM82.709 105.16C82.709 97.8213 84.0743 91.3787 86.805 85.832C89.621 80.2853 93.4183 76.0187 98.197 73.032C102.976 70.0453 108.309 68.552 114.197 68.552C119.232 68.552 123.626 69.576 127.381 71.624C131.221 73.672 134.165 76.36 136.213 79.688V69.576H158.101V141H136.213V130.888C134.08 134.216 131.093 136.904 127.253 138.952C123.498 141 119.104 142.024 114.069 142.024C108.266 142.024 102.976 140.531 98.197 137.544C93.4183 134.472 89.621 130.163 86.805 124.616C84.0743 118.984 82.709 112.499 82.709 105.16ZM136.213 105.288C136.213 99.8267 134.677 95.5173 131.605 92.36C128.618 89.2027 124.949 87.624 120.597 87.624C116.245 87.624 112.533 89.2027 109.461 92.36C106.474 95.432 104.981 99.6987 104.981 105.16C104.981 110.621 106.474 114.973 109.461 118.216C112.533 121.373 116.245 122.952 120.597 122.952C124.949 122.952 128.618 121.373 131.605 118.216C134.677 115.059 136.213 110.749 136.213 105.288ZM265.072 68.808C273.947 68.808 280.987 71.496 286.192 76.872C291.483 82.248 294.128 89.7147 294.128 99.272V141H272.368V102.216C272.368 97.608 271.131 94.0667 268.656 91.592C266.267 89.032 262.939 87.752 258.672 87.752C254.405 87.752 251.035 89.032 248.56 91.592C246.171 94.0667 244.976 97.608 244.976 102.216V141H223.216V102.216C223.216 97.608 221.979 94.0667 219.504 91.592C217.115 89.032 213.787 87.752 209.52 87.752C205.253 87.752 201.883 89.032 199.408 91.592C197.019 94.0667 195.824 97.608 195.824 102.216V141H173.936V69.576H195.824V78.536C198.043 75.5493 200.944 73.2027 204.528 71.496C208.112 69.704 212.165 68.808 216.688 68.808C222.064 68.808 226.843 69.96 231.024 72.264C235.291 74.568 238.619 77.8533 241.008 82.12C243.483 78.1947 246.853 74.9947 251.12 72.52C255.387 70.0453 260.037 68.808 265.072 68.808ZM305.084 105.16C305.084 97.8213 306.449 91.3787 309.18 85.832C311.996 80.2853 315.793 76.0187 320.572 73.032C325.351 70.0453 330.684 68.552 336.572 68.552C341.607 68.552 346.001 69.576 349.756 71.624C353.596 73.672 356.54 76.36 358.588 79.688V69.576H380.476V141H358.588V130.888C356.455 134.216 353.468 136.904 349.628 138.952C345.873 141 341.479 142.024 336.444 142.024C330.641 142.024 325.351 140.531 320.572 137.544C315.793 134.472 311.996 130.163 309.18 124.616C306.449 118.984 305.084 112.499 305.084 105.16ZM358.588 105.288C358.588 99.8267 357.052 95.5173 353.98 92.36C350.993 89.2027 347.324 87.624 342.972 87.624C338.62 87.624 334.908 89.2027 331.836 92.36C328.849 95.432 327.356 99.6987 327.356 105.16C327.356 110.621 328.849 114.973 331.836 118.216C334.908 121.373 338.62 122.952 342.972 122.952C347.324 122.952 350.993 121.373 353.98 118.216C357.052 115.059 358.588 110.749 358.588 105.288ZM418.199 81.48C420.759 77.5547 423.959 74.4827 427.799 72.264C431.639 69.96 435.906 68.808 440.599 68.808V91.976H434.583C429.122 91.976 425.026 93.1707 422.295 95.56C419.564 97.864 418.199 101.96 418.199 107.848V141H396.311V69.576H418.199V81.48ZM490.869 122.44V141H479.733C471.797 141 465.61 139.08 461.173 135.24C456.736 131.315 454.517 124.957 454.517 116.168V87.752H445.813V69.576H454.517V52.168H476.405V69.576H490.741V87.752H476.405V116.424C476.405 118.557 476.917 120.093 477.941 121.032C478.965 121.971 480.672 122.44 483.061 122.44H490.869Z" fill="#FFFFFF"/>
<path d="M51.584 141L50.775 141.588L51.0745 142H51.584V141ZM29.824 111.048L30.633 110.46L28.824 107.97V111.048H29.824ZM29.824 141V142H30.824V141H29.824ZM7.936 141H6.936V142H7.936V141ZM7.936 46.28V45.28H6.936V46.28H7.936ZM29.824 46.28H30.824V45.28H29.824V46.28ZM29.824 98.632H28.824V101.65L30.6261 99.2292L29.824 98.632ZM51.456 69.576V68.576H50.9538L50.6539 68.9788L51.456 69.576ZM78.464 69.576L79.234 70.214L80.5912 68.576H78.464V69.576ZM48.768 105.416L47.998 104.778L47.4652 105.421L48.0029 106.06L48.768 105.416ZM78.72 141V142H80.8688L79.4851 140.356L78.72 141ZM52.393 140.412L30.633 110.46L29.015 111.636L50.775 141.588L52.393 140.412ZM28.824 111.048V141H30.824V111.048H28.824ZM29.824 140H7.936V142H29.824V140ZM8.936 141V46.28H6.936V141H8.936ZM7.936 47.28H29.824V45.28H7.936V47.28ZM28.824 46.28V98.632H30.824V46.28H28.824ZM30.6261 99.2292L52.2581 70.1732L50.6539 68.9788L29.0219 98.0348L30.6261 99.2292ZM51.456 70.576H78.464V68.576H51.456V70.576ZM77.694 68.938L47.998 104.778L49.538 106.054L79.234 70.214L77.694 68.938ZM48.0029 106.06L77.9549 141.644L79.4851 140.356L49.5331 104.772L48.0029 106.06ZM78.72 140H51.584V142H78.72V140ZM86.805 85.832L85.9133 85.3793L85.9078 85.3903L86.805 85.832ZM98.197 73.032L98.727 73.88L98.727 73.88L98.197 73.032ZM127.381 71.624L126.902 72.5019L126.91 72.5063L127.381 71.624ZM136.213 79.688L135.361 80.2121L137.213 83.221V79.688H136.213ZM136.213 69.576V68.576H135.213V69.576H136.213ZM158.101 69.576H159.101V68.576H158.101V69.576ZM158.101 141V142H159.101V141H158.101ZM136.213 141H135.213V142H136.213V141ZM136.213 130.888H137.213V127.475L135.371 130.348L136.213 130.888ZM127.253 138.952L126.782 138.07L126.774 138.074L127.253 138.952ZM98.197 137.544L97.6562 138.385L97.667 138.392L98.197 137.544ZM86.805 124.616L85.9052 125.052L85.9092 125.061L85.9133 125.069L86.805 124.616ZM131.605 92.36L130.878 93.0473L130.888 93.0574L131.605 92.36ZM109.461 92.36L108.744 91.6626L108.744 91.6629L109.461 92.36ZM109.461 118.216L108.725 118.893L108.735 118.904L108.744 118.913L109.461 118.216ZM131.605 118.216L130.888 117.519L130.879 117.529L131.605 118.216ZM83.709 105.16C83.709 97.9461 85.0507 91.6595 87.7022 86.2737L85.9078 85.3903C83.098 91.0978 81.709 97.6966 81.709 105.16H83.709ZM87.6967 86.2847C90.4391 80.8829 94.1183 76.7604 98.727 73.88L97.667 72.184C92.7184 75.2769 88.8029 79.6878 85.9133 85.3793L87.6967 86.2847ZM98.727 73.88C103.339 70.9972 108.488 69.552 114.197 69.552V67.552C108.13 67.552 102.612 69.0934 97.667 72.184L98.727 73.88ZM114.197 69.552C119.094 69.552 123.318 70.5471 126.902 72.5019L127.86 70.7461C123.934 68.6049 119.369 67.552 114.197 67.552V69.552ZM126.91 72.5063C130.612 74.4806 133.417 77.0519 135.361 80.2121L137.065 79.1639C134.913 75.6681 131.83 72.8634 127.852 70.7416L126.91 72.5063ZM137.213 79.688V69.576H135.213V79.688H137.213ZM136.213 70.576H158.101V68.576H136.213V70.576ZM157.101 69.576V141H159.101V69.576H157.101ZM158.101 140H136.213V142H158.101V140ZM137.213 141V130.888H135.213V141H137.213ZM135.371 130.348C133.339 133.518 130.487 136.094 126.782 138.07L127.724 139.834C131.699 137.714 134.82 134.914 137.055 131.428L135.371 130.348ZM126.774 138.074C123.19 140.029 118.966 141.024 114.069 141.024V143.024C119.241 143.024 123.806 141.971 127.732 139.83L126.774 138.074ZM114.069 141.024C108.448 141.024 103.342 139.58 98.727 136.696L97.667 138.392C102.61 141.481 108.085 143.024 114.069 143.024V141.024ZM98.7378 136.703C94.1224 133.736 90.4401 129.567 87.6967 124.163L85.9133 125.069C88.8019 130.758 92.7142 135.208 97.6562 138.385L98.7378 136.703ZM87.7048 124.18C85.0505 118.705 83.709 112.373 83.709 105.16H81.709C81.709 112.624 83.0981 119.263 85.9052 125.052L87.7048 124.18ZM137.213 105.288C137.213 99.6321 135.617 95.0491 132.322 91.6626L130.888 93.0574C133.737 95.9856 135.213 100.021 135.213 105.288H137.213ZM132.331 91.6728C129.156 88.3155 125.223 86.624 120.597 86.624V88.624C124.675 88.624 128.081 90.0898 130.879 93.0472L132.331 91.6728ZM120.597 86.624C115.971 86.624 112.002 88.3145 108.744 91.6626L110.178 93.0574C113.064 90.0908 116.519 88.624 120.597 88.624V86.624ZM108.744 91.6629C105.53 94.9691 103.981 99.513 103.981 105.16H105.981C105.981 99.8843 107.419 95.8949 110.178 93.0571L108.744 91.6629ZM103.981 105.16C103.981 110.81 105.531 115.425 108.725 118.893L110.197 117.539C107.418 114.522 105.981 110.433 105.981 105.16H103.981ZM108.744 118.913C112.002 122.262 115.971 123.952 120.597 123.952V121.952C116.519 121.952 113.064 120.485 110.178 117.519L108.744 118.913ZM120.597 123.952C125.223 123.952 129.156 122.261 132.331 118.903L130.879 117.529C128.081 120.486 124.675 121.952 120.597 121.952V123.952ZM132.322 118.913C135.617 115.527 137.213 110.944 137.213 105.288H135.213C135.213 110.555 133.737 114.59 130.888 117.519L132.322 118.913ZM286.192 76.872L285.474 77.5676L285.479 77.5734L286.192 76.872ZM294.128 141V142H295.128V141H294.128ZM272.368 141H271.368V142H272.368V141ZM268.656 91.592L267.925 92.2743L267.937 92.2869L267.949 92.2991L268.656 91.592ZM248.56 91.592L247.841 90.897L247.841 90.8974L248.56 91.592ZM244.976 141V142H245.976V141H244.976ZM223.216 141H222.216V142H223.216V141ZM219.504 91.592L218.773 92.2743L218.785 92.2869L218.797 92.2991L219.504 91.592ZM199.408 91.592L198.689 90.897L198.689 90.8974L199.408 91.592ZM195.824 141V142H196.824V141H195.824ZM173.936 141H172.936V142H173.936V141ZM173.936 69.576V68.576H172.936V69.576H173.936ZM195.824 69.576H196.824V68.576H195.824V69.576ZM195.824 78.536H194.824V81.5591L196.627 79.1323L195.824 78.536ZM204.528 71.496L204.958 72.3989L204.967 72.3947L204.975 72.3904L204.528 71.496ZM231.024 72.264L230.541 73.1399L230.549 73.1439L231.024 72.264ZM241.008 82.12L240.135 82.6086L240.957 84.0758L241.854 82.6533L241.008 82.12ZM265.072 69.808C273.73 69.808 280.491 72.422 285.474 77.5676L286.91 76.1764C281.482 70.57 274.163 67.808 265.072 67.808V69.808ZM285.479 77.5734C290.54 82.7158 293.128 89.9036 293.128 99.272H295.128C295.128 89.5257 292.425 81.7802 286.905 76.1706L285.479 77.5734ZM293.128 99.272V141H295.128V99.272H293.128ZM294.128 140H272.368V142H294.128V140ZM273.368 141V102.216H271.368V141H273.368ZM273.368 102.216C273.368 97.4299 272.079 93.6008 269.363 90.8849L267.949 92.2991C270.182 94.5325 271.368 97.7861 271.368 102.216H273.368ZM269.387 90.9097C266.768 88.1039 263.151 86.752 258.672 86.752V88.752C262.727 88.752 265.765 89.9601 267.925 92.2743L269.387 90.9097ZM258.672 86.752C254.192 86.752 250.541 88.104 247.841 90.897L249.279 92.287C251.528 89.96 254.619 88.752 258.672 88.752V86.752ZM247.841 90.8974C245.217 93.6147 243.976 97.4391 243.976 102.216H245.976C245.976 97.7769 247.124 94.5187 249.279 92.2866L247.841 90.8974ZM243.976 102.216V141H245.976V102.216H243.976ZM244.976 140H223.216V142H244.976V140ZM224.216 141V102.216H222.216V141H224.216ZM224.216 102.216C224.216 97.4299 222.927 93.6008 220.211 90.8849L218.797 92.2991C221.03 94.5325 222.216 97.7861 222.216 102.216H224.216ZM220.235 90.9097C217.616 88.1039 213.999 86.752 209.52 86.752V88.752C213.575 88.752 216.613 89.9601 218.773 92.2743L220.235 90.9097ZM209.52 86.752C205.04 86.752 201.389 88.104 198.689 90.897L200.127 92.287C202.376 89.96 205.467 88.752 209.52 88.752V86.752ZM198.689 90.8974C196.065 93.6147 194.824 97.4391 194.824 102.216H196.824C196.824 97.7769 197.972 94.5187 200.127 92.2866L198.689 90.8974ZM194.824 102.216V141H196.824V102.216H194.824ZM195.824 140H173.936V142H195.824V140ZM174.936 141V69.576H172.936V141H174.936ZM173.936 70.576H195.824V68.576H173.936V70.576ZM194.824 69.576V78.536H196.824V69.576H194.824ZM196.627 79.1323C198.742 76.2855 201.511 74.0402 204.958 72.3989L204.098 70.5931C200.377 72.3652 197.344 74.8132 195.021 77.9397L196.627 79.1323ZM204.975 72.3904C208.403 70.6763 212.3 69.808 216.688 69.808V67.808C212.03 67.808 207.821 68.7317 204.081 70.6016L204.975 72.3904ZM216.688 69.808C221.917 69.808 226.526 70.9271 230.541 73.1398L231.507 71.3882C227.16 68.9929 222.211 67.808 216.688 67.808V69.808ZM230.549 73.1439C234.647 75.357 237.838 78.5059 240.135 82.6086L241.881 81.6314C239.399 77.2007 235.934 73.779 231.499 71.3841L230.549 73.1439ZM241.854 82.6533C244.237 78.8733 247.486 75.7838 251.622 73.385L250.618 71.655C246.221 74.2055 242.728 77.516 240.162 81.5867L241.854 82.6533ZM251.622 73.385C255.733 71.0007 260.21 69.808 265.072 69.808V67.808C259.865 67.808 255.041 69.09 250.618 71.655L251.622 73.385ZM309.18 85.832L308.288 85.3793L308.283 85.3903L309.18 85.832ZM320.572 73.032L321.102 73.88L321.102 73.88L320.572 73.032ZM349.756 71.624L349.277 72.5019L349.285 72.5063L349.756 71.624ZM358.588 79.688L357.736 80.2121L359.588 83.221V79.688H358.588ZM358.588 69.576V68.576H357.588V69.576H358.588ZM380.476 69.576H381.476V68.576H380.476V69.576ZM380.476 141V142H381.476V141H380.476ZM358.588 141H357.588V142H358.588V141ZM358.588 130.888H359.588V127.475L357.746 130.348L358.588 130.888ZM349.628 138.952L349.157 138.07L349.149 138.074L349.628 138.952ZM320.572 137.544L320.031 138.385L320.042 138.392L320.572 137.544ZM309.18 124.616L308.28 125.052L308.284 125.061L308.288 125.069L309.18 124.616ZM353.98 92.36L353.253 93.0473L353.263 93.0574L353.98 92.36ZM331.836 92.36L331.119 91.6626L331.119 91.6629L331.836 92.36ZM331.836 118.216L331.1 118.893L331.11 118.904L331.119 118.913L331.836 118.216ZM353.98 118.216L353.263 117.519L353.254 117.529L353.98 118.216ZM306.084 105.16C306.084 97.9461 307.426 91.6595 310.077 86.2737L308.283 85.3903C305.473 91.0978 304.084 97.6966 304.084 105.16H306.084ZM310.072 86.2847C312.814 80.8829 316.493 76.7604 321.102 73.88L320.042 72.184C315.093 75.2769 311.178 79.6878 308.288 85.3793L310.072 86.2847ZM321.102 73.88C325.714 70.9972 330.863 69.552 336.572 69.552V67.552C330.505 67.552 324.987 69.0934 320.042 72.184L321.102 73.88ZM336.572 69.552C341.469 69.552 345.693 70.5471 349.277 72.5019L350.235 70.7461C346.309 68.6049 341.744 67.552 336.572 67.552V69.552ZM349.285 72.5063C352.987 74.4806 355.792 77.0519 357.736 80.2121L359.44 79.1639C357.288 75.6681 354.205 72.8634 350.227 70.7416L349.285 72.5063ZM359.588 79.688V69.576H357.588V79.688H359.588ZM358.588 70.576H380.476V68.576H358.588V70.576ZM379.476 69.576V141H381.476V69.576H379.476ZM380.476 140H358.588V142H380.476V140ZM359.588 141V130.888H357.588V141H359.588ZM357.746 130.348C355.714 133.518 352.862 136.094 349.157 138.07L350.099 139.834C354.074 137.714 357.195 134.914 359.43 131.428L357.746 130.348ZM349.149 138.074C345.565 140.029 341.341 141.024 336.444 141.024V143.024C341.616 143.024 346.181 141.971 350.107 139.83L349.149 138.074ZM336.444 141.024C330.823 141.024 325.717 139.58 321.102 136.696L320.042 138.392C324.985 141.481 330.46 143.024 336.444 143.024V141.024ZM321.113 136.703C316.497 133.736 312.815 129.567 310.072 124.163L308.288 125.069C311.177 130.758 315.089 135.208 320.031 138.385L321.113 136.703ZM310.08 124.18C307.426 118.705 306.084 112.373 306.084 105.16H304.084C304.084 112.624 305.473 119.263 308.28 125.052L310.08 124.18ZM359.588 105.288C359.588 99.6321 357.992 95.0491 354.697 91.6626L353.263 93.0574C356.112 95.9856 357.588 100.021 357.588 105.288H359.588ZM354.706 91.6728C351.531 88.3155 347.598 86.624 342.972 86.624V88.624C347.05 88.624 350.456 90.0898 353.254 93.0472L354.706 91.6728ZM342.972 86.624C338.346 86.624 334.377 88.3145 331.119 91.6626L332.553 93.0574C335.439 90.0908 338.894 88.624 342.972 88.624V86.624ZM331.119 91.6629C327.905 94.9691 326.356 99.513 326.356 105.16H328.356C328.356 99.8843 329.794 95.8949 332.553 93.0571L331.119 91.6629ZM326.356 105.16C326.356 110.81 327.906 115.425 331.1 118.893L332.572 117.539C329.793 114.522 328.356 110.433 328.356 105.16H326.356ZM331.119 118.913C334.377 122.262 338.346 123.952 342.972 123.952V121.952C338.894 121.952 335.439 120.485 332.553 117.519L331.119 118.913ZM342.972 123.952C347.598 123.952 351.531 122.261 354.706 118.903L353.254 117.529C350.456 120.486 347.05 121.952 342.972 121.952V123.952ZM354.697 118.913C357.992 115.527 359.588 110.944 359.588 105.288H357.588C357.588 110.555 356.112 114.59 353.263 117.519L354.697 118.913ZM418.199 81.48H417.199V84.8439L419.037 82.0263L418.199 81.48ZM427.799 72.264L428.299 73.1299L428.306 73.1257L428.313 73.1215L427.799 72.264ZM440.599 68.808H441.599V67.808H440.599V68.808ZM440.599 91.976V92.976H441.599V91.976H440.599ZM422.295 95.56L422.94 96.3243L422.947 96.3185L422.954 96.3126L422.295 95.56ZM418.199 141V142H419.199V141H418.199ZM396.311 141H395.311V142H396.311V141ZM396.311 69.576V68.576H395.311V69.576H396.311ZM418.199 69.576H419.199V68.576H418.199V69.576ZM419.037 82.0263C421.516 78.2248 424.603 75.2655 428.299 73.1299L427.299 71.3981C423.315 73.6998 420.002 76.8845 417.361 80.9337L419.037 82.0263ZM428.313 73.1215C431.99 70.9153 436.078 69.808 440.599 69.808V67.808C435.734 67.808 431.288 69.0047 427.285 71.4065L428.313 73.1215ZM439.599 68.808V91.976H441.599V68.808H439.599ZM440.599 90.976H434.583V92.976H440.599V90.976ZM434.583 90.976C428.998 90.976 424.622 92.1949 421.636 94.8074L422.954 96.3126C425.429 94.1465 429.245 92.976 434.583 92.976V90.976ZM421.65 94.7957C418.583 97.3838 417.199 101.852 417.199 107.848H419.199C419.199 102.068 420.546 98.3442 422.94 96.3243L421.65 94.7957ZM417.199 107.848V141H419.199V107.848H417.199ZM418.199 140H396.311V142H418.199V140ZM397.311 141V69.576H395.311V141H397.311ZM396.311 70.576H418.199V68.576H396.311V70.576ZM417.199 69.576V81.48H419.199V69.576H417.199ZM490.869 122.44H491.869V121.44H490.869V122.44ZM490.869 141V142H491.869V141H490.869ZM461.173 135.24L460.51 135.989L460.519 135.996L461.173 135.24ZM454.517 87.752H455.517V86.752H454.517V87.752ZM445.813 87.752H444.813V88.752H445.813V87.752ZM445.813 69.576V68.576H444.813V69.576H445.813ZM454.517 69.576V70.576H455.517V69.576H454.517ZM454.517 52.168V51.168H453.517V52.168H454.517ZM476.405 52.168H477.405V51.168H476.405V52.168ZM476.405 69.576H475.405V70.576H476.405V69.576ZM490.741 69.576H491.741V68.576H490.741V69.576ZM490.741 87.752V88.752H491.741V87.752H490.741ZM476.405 87.752V86.752H475.405V87.752H476.405ZM477.941 121.032L477.265 121.769L477.265 121.769L477.941 121.032ZM489.869 122.44V141H491.869V122.44H489.869ZM490.869 140H479.733V142H490.869V140ZM479.733 140C471.952 140 466.027 138.119 461.827 134.484L460.519 135.996C465.193 140.041 471.642 142 479.733 142V140ZM461.836 134.491C457.699 130.832 455.517 124.811 455.517 116.168H453.517C453.517 125.104 455.772 131.797 460.51 135.989L461.836 134.491ZM455.517 116.168V87.752H453.517V116.168H455.517ZM454.517 86.752H445.813V88.752H454.517V86.752ZM446.813 87.752V69.576H444.813V87.752H446.813ZM445.813 70.576H454.517V68.576H445.813V70.576ZM455.517 69.576V52.168H453.517V69.576H455.517ZM454.517 53.168H476.405V51.168H454.517V53.168ZM475.405 52.168V69.576H477.405V52.168H475.405ZM476.405 70.576H490.741V68.576H476.405V70.576ZM489.741 69.576V87.752H491.741V69.576H489.741ZM490.741 86.752H476.405V88.752H490.741V86.752ZM475.405 87.752V116.424H477.405V87.752H475.405ZM475.405 116.424C475.405 118.689 475.946 120.56 477.265 121.769L478.617 120.295C477.888 119.627 477.405 118.426 477.405 116.424H475.405ZM477.265 121.769C478.567 122.963 480.587 123.44 483.061 123.44V121.44C480.756 121.44 479.363 120.979 478.617 120.295L477.265 121.769ZM483.061 123.44H490.869V121.44H483.061V123.44Z" fill="#FFFFFF"/>
<ellipse cx="120.5" cy="105" rx="11.5" ry="13" fill="#62E1FC"/>
<ellipse cx="342.5" cy="105" rx="11.5" ry="13" fill="#62E1FC"/>
</svg>
